<?xml version="1.0" encoding="UTF-8" standalone="no"?>
<svg width="200mm" height="30mm"
 xmlns="http://www.w3.org/2000/svg" xmlns:xlink="http://www.w3.org/1999/xlink"  version="1.2" baseProfile="tiny">
<desc>Created by EvoPdf</desc>
<defs>
</defs>
<g fill="none" stroke="black" stroke-width="1" fill-rule="evenodd" stroke-linecap="square" stroke-linejoin="bevel" >

<g fill="#000000" fill-opacity="1" stroke="#000000" stroke-opacity="1" stroke-width="1" stroke-linecap="square" stroke-linejoin="miter" stroke-miterlimit="2" transform="matrix(1,0,0,1,0,0)"
>
</g>

<g fill="#000000" fill-opacity="1" stroke="#000000" stroke-opacity="1" stroke-width="1" stroke-linecap="square" stroke-linejoin="miter" stroke-miterlimit="2" transform="matrix(1,0,0,1,0,0)"
>
</g>

<g fill="#000000" fill-opacity="1" stroke="#000000" stroke-opacity="1" stroke-width="1" stroke-linecap="square" stroke-linejoin="miter" stroke-miterlimit="2" transform="matrix(1,0,0,1,0,0)"
>
</g>

<g fill="#000000" fill-opacity="1" stroke="#000000" stroke-opacity="1" stroke-width="1" stroke-linecap="square" stroke-linejoin="miter" stroke-miterlimit="2" transform="matrix(1,0,0,1,0,0)"
>
</g>

<g fill="#000000" fill-opacity="1" stroke="#000000" stroke-opacity="1" stroke-width="1" stroke-linecap="square" stroke-linejoin="miter" stroke-miterlimit="2" transform="matrix(1.7744,0,0,1.7744,8.02814,8)"
>
</g>

<g fill="#000000" fill-opacity="1" stroke="#000000" stroke-opacity="1" stroke-width="1" stroke-linecap="square" stroke-linejoin="miter" stroke-miterlimit="2" transform="matrix(3.74578,0,0,3.74578,5.43115,12.846)"
>
</g>

<g fill="#9c162e" fill-opacity="1" stroke="none" transform="matrix(3.74578,0,0,3.74578,5.43115,12.846)"
>
<path vector-effect="none" fill-rule="nonzero" d="M11.123,13.6719 L12.0996,13.6719 L11.9726,14.2676 L6.93351,14.2676 L5.60541,20.0391 L0.69331,20.0391 L2.17771,13.6719 L1.18162,13.6719 L3.08592,5.4297 L13.4569,5.4297 L12.5975,9.1309 L7.13854,9.1309 L6.79674,10.5664 L11.826,10.5664 L11.123,13.6719 M21.5503,13.6719 L20.0855,20.0391 L15.1441,20.0391 L16.6089,13.6719 L15.6128,13.6719 L17.5269,5.4297 L22.4585,5.4297 L20.564,13.6719 L21.5503,13.6719 L21.5503,13.6719 M27.0166,13.3594 L26.1279,13.3594 L27.9443,5.3809 C29.6435,5.3809 32.7099,5.21488 35.1318,5.53715 C37.2705,5.84965 39.3408,6.64065 38.9795,9.20905 C38.7744,10.7618 37.583,12.3535 36.294,13.3595 L37.1729,13.3595 C36.9385,13.5352 36.7042,13.7208 36.4503,13.8477 L39.7901,20.0391 L33.9307,20.0391 L31.4893,15.2637 L30.4053,20.0391 L25.4834,20.0391 L27.0166,13.3594 M32.0557,8.994 L31.46,11.5135 C33.8135,11.5135 35.1319,8.994 32.0557,8.994 M44.563,13.6719 L43.5669,13.6719 L45.481,5.4297 L55.94,5.4297 L55.1002,9.1309 L49.524,9.1309 L49.231,10.3809 L54.358,10.3809 L53.606,13.6719 L54.6021,13.6719 L54.5142,14.0625 L49.3775,14.0625 L48.86,16.3477 L54.4166,16.3477 L53.5767,20.0391 L43.0977,20.0391 L44.563,13.6719"/>
</g>

<g fill="#000000" fill-opacity="1" stroke="#000000" stroke-opacity="1" stroke-width="1" stroke-linecap="square" stroke-linejoin="miter" stroke-miterlimit="2" transform="matrix(3.74578,0,0,3.74578,5.43115,12.846)"
>
</g>

<g fill="#000000" fill-opacity="1" stroke="#000000" stroke-opacity="1" stroke-width="1" stroke-linecap="square" stroke-linejoin="miter" stroke-miterlimit="2" transform="matrix(1.7744,0,0,1.7744,8.02814,8)"
>
</g>

<g fill="#000000" fill-opacity="1" stroke="#000000" stroke-opacity="1" stroke-width="1" stroke-linecap="square" stroke-linejoin="miter" stroke-miterlimit="2" transform="matrix(1.30422,0,0,1.30422,241.887,-2.98625)"
>
</g>

<g fill="#f20d1a" fill-opacity="1" stroke="none" transform="matrix(1.30422,0,0,1.30422,241.887,-2.98625)"
>
<path vector-effect="none" fill-rule="nonzero" d="M25.31,61.25 L21.93,61.25 C21.3968,59.0181 21.3968,56.6919 21.93,54.46 L25.31,54.46 C26.5669,54.3918 27.7586,55.0235 28.4075,56.1021 C29.0565,57.1806 29.0565,58.5294 28.4075,59.6079 C27.7586,60.6865 26.5669,61.3182 25.31,61.25 L25.31,61.25 M33.41,46.36 C33.3418,47.6169 33.9735,48.8086 35.052,49.4576 C36.1306,50.1066 37.4794,50.1066 38.558,49.4576 C39.6365,48.8086 40.2682,47.6169 40.2,46.36 L40.2,43 C37.9681,42.4668 35.6419,42.4668 33.41,43 L33.41,46.36 M40.2,69.36 C40.2682,68.1031 39.6365,66.9114 38.558,66.2624 C37.4794,65.6134 36.1306,65.6134 35.052,66.2624 C33.9735,66.9114 33.3418,68.1031 33.41,69.36 L33.41,72.74 C35.6419,73.2732 37.9681,73.2732 40.2,72.74 L40.2,69.36 M66.54,57.86 C66.54,74.2794 53.2294,87.59 36.81,87.59 C20.3906,87.59 7.08,74.2794 7.08,57.86 C7.08001,41.4406 20.3906,28.13 36.81,28.13 C53.2226,28.1465 66.5235,41.4474 66.54,57.86 L66.54,57.86 M56.08,57.86 C56.0855,47.2093 47.454,38.5718 36.8033,38.57 C26.1527,38.5682 17.5182,47.2027 17.52,57.8533 C17.5218,68.504 26.1593,77.1355 36.81,77.13 C47.4457,77.1135 56.0635,68.4957 56.08,57.86 L56.08,57.86 M44.9,57.86 C44.9055,59.7339 46.4261,61.25 48.3,61.25 L51.68,61.25 C52.2132,59.0181 52.2132,56.6919 51.68,54.46 L48.3,54.46 C46.4222,54.46 44.9,55.9822 44.9,57.86 L44.9,57.86 M48.3,65.25 C45.5932,65.3496 43.0482,63.9623 41.6652,61.6333 C40.2822,59.3043 40.2822,56.4057 41.6652,54.0767 C43.0482,51.7477 45.5932,50.3604 48.3,50.46 L50.16,50.46 C48.7622,47.9369 46.6831,45.8578 44.16,44.46 L44.16,46.32 C44.2595,49.0268 42.8722,51.5718 40.5432,52.9547 C38.2142,54.3377 35.3158,54.3377 32.9868,52.9547 C30.6578,51.5718 29.2705,49.0268 29.37,46.32 L29.37,44.5 C26.8644,45.904 24.8029,47.9827 23.42,50.5 L25.27,50.5 C27.9768,50.4004 30.5218,51.7877 31.9048,54.1167 C33.2878,56.4457 33.2878,59.3443 31.9048,61.6733 C30.5218,64.0023 27.9768,65.3896 25.27,65.29 L23.46,65.29 C24.8429,67.8073 26.9044,69.886 29.41,71.29 L29.41,69.35 C29.3104,66.6432 30.6977,64.0982 33.0267,62.7153 C35.3558,61.3323 38.2543,61.3323 40.5833,62.7153 C42.9123,64.0982 44.2996,66.6432 44.2,69.35 L44.2,71.21 C46.7231,69.8122 48.8022,67.7331 50.2,65.21 L48.3,65.25 M88.92,45.42 C88.9051,44.7688 88.5741,44.1657 88.0327,43.8035 C87.4914,43.4413 86.8076,43.3653 86.2,43.6 C82.77,44.93 79.14,41.18 77.33,38.91 C88.9,30.35 79.82,11.38 79.4,10.54 C79.0188,9.76744 78.1858,9.32576 77.3324,9.44378 C76.4791,9.56179 75.7972,10.213 75.64,11.06 C74.64,16.5 70.18,20.49 66.18,23.06 C67,17 63.29,9.84 63.12,9.5 C62.8294,8.93476 62.2874,8.54128 61.66,8.44 C61.05,8.3615 60.4378,8.56802 60,9 C59.9,9.09 50.4,18.17 39.45,17.6 C32.14,17.22 27.67,21.6 25.26,26.2 C35.5967,22.4426 47.116,23.9576 56.1296,30.26 C65.1433,36.5624 70.5206,46.8615 70.54,57.86 C70.5472,62.7448 69.4821,67.5717 67.42,72 C89.06,66.5 88.93,45.65 88.92,45.42 "/>
</g>

<g fill="#000000" fill-opacity="1" stroke="#000000" stroke-opacity="1" stroke-width="1" stroke-linecap="square" stroke-linejoin="miter" stroke-miterlimit="2" transform="matrix(1.30422,0,0,1.30422,241.887,-2.98625)"
>
</g>

<g fill="#000000" fill-opacity="1" stroke="#000000" stroke-opacity="1" stroke-width="1" stroke-linecap="square" stroke-linejoin="miter" stroke-miterlimit="2" transform="matrix(1.30422,0,0,1.30422,241.887,-2.98625)"
>
</g>

<g fill="#000000" fill-opacity="1" stroke="#000000" stroke-opacity="1" stroke-width="1" stroke-linecap="square" stroke-linejoin="miter" stroke-miterlimit="2" transform="matrix(1.7744,0,0,1.7744,8.02814,8)"
>
</g>

<g fill="#000000" fill-opacity="1" stroke="#000000" stroke-opacity="1" stroke-width="1" stroke-linecap="square" stroke-linejoin="miter" stroke-miterlimit="2" transform="matrix(3.63724,0,0,3.63724,336.747,14.0611)"
>
</g>

<g fill="#9c162e" fill-opacity="1" stroke="none" transform="matrix(3.63724,0,0,3.63724,336.747,14.0611)"
>
<path vector-effect="none" fill-rule="nonzero" d="M32.5659,13.3594 L29.4214,20.0391 L24.4019,20.0391 L24.2457,14.5801 C23.3765,16.3672 22.4684,18.2129 21.648,20.0391 L16.6187,20.0391 L16.521,13.3594 L15.6323,13.3594 L15.4858,5.3809 L20.5835,5.3809 L20.4468,11.1524 C21.3355,9.2481 22.2632,7.295 23.1812,5.3809 L27.8785,5.3809 L27.8785,11.1524 C28.7574,9.2481 29.5875,7.295 30.4469,5.3809 L35.4469,5.3809 L31.6774,13.3594 L32.5661,13.3594 L32.5659,13.3594 M51.2448,13.6719 L49.7604,20.0391 L44.8678,20.0391 L46.2545,14.0625 L43.4225,14.0625 L42.026,20.0391 L37.1041,20.0391 L38.5787,13.6719 L37.5923,13.6719 L39.4771,5.4297 L44.399,5.4297 L43.276,10.3809 L46.0983,10.3809 L47.2409,5.4297 L52.1432,5.4297 L50.2389,13.6719 L51.2449,13.6719 L51.2448,13.6719 M56.3208,13.6719 L55.3247,13.6719 L57.2388,5.4297 L67.6978,5.4297 L66.858,9.1309 L61.2818,9.1309 L60.9888,10.3809 L66.1158,10.3809 L65.3638,13.6719 L66.3599,13.6719 L66.272,14.0625 L61.1353,14.0625 L60.6178,16.3477 L66.1744,16.3477 L65.3345,20.0391 L54.8555,20.0391 L56.3208,13.6719 M71.2598,13.6719 L70.2637,13.6719 L72.1778,5.4297 L82.6368,5.4297 L81.7969,9.1309 L76.2207,9.1309 L75.9278,10.3809 L81.0548,10.3809 L80.3028,13.6719 L81.2989,13.6719 L81.211,14.0625 L76.0743,14.0625 L75.5567,16.3477 L81.1133,16.3477 L80.2735,20.0391 L69.7945,20.0391 L71.2598,13.6719 M86.3257,13.6328 L85.4273,13.6328 L87.3023,5.4492 L92.2046,5.4492 L90.3101,13.6328 L91.2183,13.6328 L90.5738,16.2988 L95.9937,16.2988 L95.1538,19.9902 L84.8508,19.9902 L86.3257,13.6328 M111.694,13.3594 C112.261,15.4102 110.562,17.8321 108.989,18.8965 C105.903,20.918 101.831,20.5957 98.6763,18.9746 L99.5943,14.9121 L101.108,14.9121 C101.303,17.0117 106.001,17.8809 106.479,15.8106 C106.713,14.7852 103.032,14.502 101.801,13.5352 C101.733,13.4766 101.655,13.418 101.596,13.3594 L100.698,13.3594 C99.7213,12.4414 99.6334,11.2207 99.9166,9.95118 C101.108,4.74608 108.178,4.22848 112.261,6.28908 L111.352,10.2442 L109.829,10.2442 C109.927,8.75978 105.435,7.74418 105.015,9.53129 C104.731,10.918 109.282,10.5079 110.542,12.7051 C110.649,12.9004 110.737,13.1348 110.796,13.3594 L111.694,13.3594 L111.694,13.3594"/>
</g>

<g fill="#000000" fill-opacity="1" stroke="#000000" stroke-opacity="1" stroke-width="1" stroke-linecap="square" stroke-linejoin="miter" stroke-miterlimit="2" transform="matrix(3.63724,0,0,3.63724,336.747,14.0611)"
>
</g>

<g fill="#000000" fill-opacity="1" stroke="#000000" stroke-opacity="1" stroke-width="1" stroke-linecap="square" stroke-linejoin="miter" stroke-miterlimit="2" transform="matrix(1.7744,0,0,1.7744,8.02814,8)"
>
</g>

<g fill="#000000" fill-opacity="1" stroke="#000000" stroke-opacity="1" stroke-width="1" stroke-linecap="square" stroke-linejoin="miter" stroke-miterlimit="2" transform="matrix(1.7744,0,0,1.7744,8.02814,8)"
>
</g>

<g fill="#000000" fill-opacity="1" stroke="#000000" stroke-opacity="1" stroke-width="1" stroke-linecap="square" stroke-linejoin="miter" stroke-miterlimit="2" transform="matrix(1,0,0,1,0,0)"
>
</g>

<g fill="#000000" fill-opacity="1" stroke="#000000" stroke-opacity="1" stroke-width="1" stroke-linecap="square" stroke-linejoin="miter" stroke-miterlimit="2" transform="matrix(1,0,0,1,0,0)"
>
</g>

<g fill="#000000" fill-opacity="1" stroke="#000000" stroke-opacity="1" stroke-width="1" stroke-linecap="square" stroke-linejoin="miter" stroke-miterlimit="2" transform="matrix(1,0,0,1,0,0)"
>
</g>

<g fill="#000000" fill-opacity="1" stroke="#000000" stroke-opacity="1" stroke-width="1" stroke-linecap="square" stroke-linejoin="miter" stroke-miterlimit="2" transform="matrix(1,0,0,1,0,0)"
>
</g>

<g fill="#000000" fill-opacity="1" stroke="#000000" stroke-opacity="1" stroke-width="1" stroke-linecap="square" stroke-linejoin="miter" stroke-miterlimit="2" transform="matrix(1.7744,0,0,1.7744,8.02814,8)"
>
</g>

<g fill="#000000" fill-opacity="1" stroke="#000000" stroke-opacity="1" stroke-width="1" stroke-linecap="square" stroke-linejoin="miter" stroke-miterlimit="2" transform="matrix(1.7744,0,0,1.7744,8.02814,8)"
>
</g>

<g fill="#000000" fill-opacity="1" stroke="#000000" stroke-opacity="1" stroke-width="1" stroke-linecap="square" stroke-linejoin="miter" stroke-miterlimit="2" transform="matrix(1.30422,0,0,1.30422,241.887,-2.98625)"
>
</g>

<g fill="#000000" fill-opacity="1" stroke="#000000" stroke-opacity="1" stroke-width="1" stroke-linecap="square" stroke-linejoin="miter" stroke-miterlimit="2" transform="matrix(1.30422,0,0,1.30422,241.887,-2.98625)"
>
</g>

<g fill="#000000" fill-opacity="1" stroke="#000000" stroke-opacity="1" stroke-width="1" stroke-linecap="square" stroke-linejoin="miter" stroke-miterlimit="2" transform="matrix(1.7744,0,0,1.7744,8.02814,8)"
>
</g>

<g fill="#000000" fill-opacity="1" stroke="#000000" stroke-opacity="1" stroke-width="1" stroke-linecap="square" stroke-linejoin="miter" stroke-miterlimit="2" transform="matrix(1.7744,0,0,1.7744,8.02814,8)"
>
</g>

<g fill="#000000" fill-opacity="1" stroke="#000000" stroke-opacity="1" stroke-width="1" stroke-linecap="square" stroke-linejoin="miter" stroke-miterlimit="2" transform="matrix(1.7744,0,0,1.7744,8.02814,8)"
>
</g>

<g fill="#000000" fill-opacity="1" stroke="#000000" stroke-opacity="1" stroke-width="1" stroke-linecap="square" stroke-linejoin="miter" stroke-miterlimit="2" transform="matrix(1,0,0,1,0,0)"
>
</g>

<g fill="#000000" fill-opacity="1" stroke="#000000" stroke-opacity="1" stroke-width="1" stroke-linecap="square" stroke-linejoin="miter" stroke-miterlimit="2" transform="matrix(1,0,0,1,0,0)"
>
</g>

<g fill="#000000" fill-opacity="1" stroke="#000000" stroke-opacity="1" stroke-width="1" stroke-linecap="square" stroke-linejoin="miter" stroke-miterlimit="2" transform="matrix(1,0,0,1,0,0)"
>
</g>

<g fill="#000000" fill-opacity="1" stroke="#000000" stroke-opacity="1" stroke-width="1" stroke-linecap="square" stroke-linejoin="miter" stroke-miterlimit="2" transform="matrix(1,0,0,1,0,0)"
>
</g>

<g fill="#000000" fill-opacity="1" stroke="#000000" stroke-opacity="1" stroke-width="1" stroke-linecap="square" stroke-linejoin="miter" stroke-miterlimit="2" transform="matrix(1,0,0,1,0,0)"
>
</g>

<g fill="#000000" fill-opacity="1" stroke="#000000" stroke-opacity="1" stroke-width="1" stroke-linecap="square" stroke-linejoin="miter" stroke-miterlimit="2" transform="matrix(1,0,0,1,0,0)"
>
</g>
</g>
</svg>
